<mxfile host="app.diagrams.net" agent="Mozilla/5.0 (Windows NT 10.0; Win64; x64) AppleWebKit/537.36 (KHTML, like Gecko) Chrome/129.0.0.0 Safari/537.36 Edg/129.0.0.0" version="24.7.16">
  <diagram name="Страница — 1" id="I9b2rhlldtggpzdVo2Wk">
    <mxGraphModel dx="3567" dy="3704" grid="1" gridSize="10" guides="1" tooltips="1" connect="1" arrows="1" fold="1" page="1" pageScale="1" pageWidth="827" pageHeight="1169" background="#ffffff" math="0" shadow="0">
      <root>
        <mxCell id="0" />
        <mxCell id="1" parent="0" />
        <mxCell id="IYKv4-9v9WQwq1Tj8tWP-13" value="" style="strokeWidth=1;shadow=0;dashed=0;align=center;html=1;shape=mxgraph.mockup.containers.browserWindow;rSize=0;strokeColor=#666666;strokeColor2=#008cff;strokeColor3=#c4c4c4;mainText=,;recursiveResize=0;" parent="1" vertex="1">
          <mxGeometry x="-80" y="-320" width="1320" height="720" as="geometry" />
        </mxCell>
        <mxCell id="IYKv4-9v9WQwq1Tj8tWP-14" value="Page 1" style="strokeWidth=1;shadow=0;dashed=0;align=center;html=1;shape=mxgraph.mockup.containers.anchor;fontSize=17;fontColor=#666666;align=left;whiteSpace=wrap;" parent="IYKv4-9v9WQwq1Tj8tWP-13" vertex="1">
          <mxGeometry x="60" y="12" width="110" height="26" as="geometry" />
        </mxCell>
        <mxCell id="IYKv4-9v9WQwq1Tj8tWP-15" value="https://hostname/admin/key" style="strokeWidth=1;shadow=0;dashed=0;align=center;html=1;shape=mxgraph.mockup.containers.anchor;rSize=0;fontSize=17;fontColor=#666666;align=left;" parent="IYKv4-9v9WQwq1Tj8tWP-13" vertex="1">
          <mxGeometry x="130" y="60" width="310" height="26" as="geometry" />
        </mxCell>
        <mxCell id="IYKv4-9v9WQwq1Tj8tWP-16" value="" style="strokeWidth=1;shadow=0;dashed=0;align=center;html=1;shape=mxgraph.mockup.forms.rrect;rSize=0;strokeColor=#6c8ebf;fillColor=#dae8fc;" parent="IYKv4-9v9WQwq1Tj8tWP-13" vertex="1">
          <mxGeometry x="470" y="260" width="340" height="200" as="geometry" />
        </mxCell>
        <mxCell id="IYKv4-9v9WQwq1Tj8tWP-17" value="Административная панель" style="strokeWidth=1;shadow=0;dashed=0;align=center;html=1;shape=mxgraph.mockup.forms.anchor;fontSize=12;fontColor=#000000;align=left;resizeWidth=1;spacingLeft=0;" parent="IYKv4-9v9WQwq1Tj8tWP-16" vertex="1">
          <mxGeometry width="169.99999999999997" height="20" relative="1" as="geometry">
            <mxPoint x="10" y="10" as="offset" />
          </mxGeometry>
        </mxCell>
        <mxCell id="IYKv4-9v9WQwq1Tj8tWP-18" value="" style="shape=line;strokeColor=#F0F8FF;strokeWidth=3;html=1;resizeWidth=1;" parent="IYKv4-9v9WQwq1Tj8tWP-16" vertex="1">
          <mxGeometry width="320" height="10" relative="1" as="geometry">
            <mxPoint x="10" y="30" as="offset" />
          </mxGeometry>
        </mxCell>
        <mxCell id="IYKv4-9v9WQwq1Tj8tWP-19" value="Имя пользователя:" style="strokeWidth=1;shadow=0;dashed=0;align=center;html=1;shape=mxgraph.mockup.forms.anchor;fontSize=12;fontColor=#000000;align=left;resizeWidth=1;spacingLeft=0;" parent="IYKv4-9v9WQwq1Tj8tWP-16" vertex="1">
          <mxGeometry width="169.99999999999997" height="20" relative="1" as="geometry">
            <mxPoint x="10" y="40" as="offset" />
          </mxGeometry>
        </mxCell>
        <mxCell id="IYKv4-9v9WQwq1Tj8tWP-20" value="johndoe" style="strokeWidth=1;shadow=0;dashed=0;align=center;html=1;shape=mxgraph.mockup.forms.rrect;rSize=0;strokeColor=#999999;fontColor=#666666;align=left;spacingLeft=5;resizeWidth=1;" parent="IYKv4-9v9WQwq1Tj8tWP-16" vertex="1">
          <mxGeometry width="255" height="25" relative="1" as="geometry">
            <mxPoint x="10" y="60" as="offset" />
          </mxGeometry>
        </mxCell>
        <mxCell id="IYKv4-9v9WQwq1Tj8tWP-21" value="Пароль:" style="strokeWidth=1;shadow=0;dashed=0;align=center;html=1;shape=mxgraph.mockup.forms.anchor;fontSize=12;fontColor=#000000;align=left;resizeWidth=1;spacingLeft=0;" parent="IYKv4-9v9WQwq1Tj8tWP-16" vertex="1">
          <mxGeometry width="169.99999999999997" height="20" relative="1" as="geometry">
            <mxPoint x="10" y="95" as="offset" />
          </mxGeometry>
        </mxCell>
        <mxCell id="IYKv4-9v9WQwq1Tj8tWP-22" value="********" style="strokeWidth=1;shadow=0;dashed=0;align=center;html=1;shape=mxgraph.mockup.forms.rrect;rSize=0;strokeColor=#999999;fontColor=#666666;align=left;spacingLeft=5;resizeWidth=1;" parent="IYKv4-9v9WQwq1Tj8tWP-16" vertex="1">
          <mxGeometry width="255" height="25" relative="1" as="geometry">
            <mxPoint x="10" y="115" as="offset" />
          </mxGeometry>
        </mxCell>
        <mxCell id="IYKv4-9v9WQwq1Tj8tWP-23" value="SIGN IN" style="strokeWidth=1;shadow=0;dashed=0;align=center;html=1;shape=mxgraph.mockup.forms.rrect;rSize=5;strokeColor=none;fontColor=#ffffff;fillColor=#66bbff;fontSize=16;fontStyle=1;" parent="IYKv4-9v9WQwq1Tj8tWP-16" vertex="1">
          <mxGeometry y="1" width="80" height="30" relative="1" as="geometry">
            <mxPoint x="130" y="-40" as="offset" />
          </mxGeometry>
        </mxCell>
        <mxCell id="IYKv4-9v9WQwq1Tj8tWP-26" value="" style="strokeWidth=1;shadow=0;dashed=0;align=center;html=1;shape=mxgraph.mockup.forms.anchor;fontSize=12;fontColor=#666666;align=left;spacingLeft=0;resizeWidth=1;" parent="IYKv4-9v9WQwq1Tj8tWP-16" vertex="1">
          <mxGeometry y="1" width="255" height="20" relative="1" as="geometry">
            <mxPoint x="10" y="-70" as="offset" />
          </mxGeometry>
        </mxCell>
        <mxCell id="ksbrEzIku8VTzbtZOOB5-1" value="В случае успешной авторизации, пользователь должен быть перенаправлен на страничку &quot;logs_page&quot;" style="whiteSpace=wrap;html=1;shape=mxgraph.basic.rectCallout;dx=30;dy=15;boundedLbl=1;" vertex="1" parent="IYKv4-9v9WQwq1Tj8tWP-13">
          <mxGeometry x="750" y="180" width="210" height="80" as="geometry" />
        </mxCell>
        <mxCell id="IYKv4-9v9WQwq1Tj8tWP-28" value="" style="verticalLabelPosition=bottom;verticalAlign=top;html=1;strokeWidth=2;shape=mxgraph.arrows2.arrow;dy=0.6;dx=40;notch=0;" parent="1" vertex="1">
          <mxGeometry x="1280" y="55" width="350" height="70" as="geometry" />
        </mxCell>
        <mxCell id="IYKv4-9v9WQwq1Tj8tWP-29" value="&lt;font style=&quot;font-size: 15px;&quot;&gt;Если авторизация&lt;/font&gt;&lt;div style=&quot;font-size: 15px;&quot;&gt;&lt;font style=&quot;font-size: 15px;&quot;&gt;не была успешно&lt;/font&gt;&lt;/div&gt;&lt;div style=&quot;font-size: 15px;&quot;&gt;&lt;font style=&quot;font-size: 15px;&quot;&gt;пройдена&lt;/font&gt;&lt;/div&gt;" style="whiteSpace=wrap;html=1;shape=mxgraph.basic.rectCallout;dx=30;dy=15;boundedLbl=1;" parent="1" vertex="1">
          <mxGeometry x="1400" y="-20" width="150" height="85" as="geometry" />
        </mxCell>
        <mxCell id="IYKv4-9v9WQwq1Tj8tWP-382" value="" style="strokeWidth=1;shadow=0;dashed=0;align=center;html=1;shape=mxgraph.mockup.containers.browserWindow;rSize=0;strokeColor=#666666;strokeColor2=#008cff;strokeColor3=#c4c4c4;mainText=,;recursiveResize=0;" parent="1" vertex="1">
          <mxGeometry x="1654" y="-320" width="1320" height="720" as="geometry" />
        </mxCell>
        <mxCell id="IYKv4-9v9WQwq1Tj8tWP-383" value="Page 1" style="strokeWidth=1;shadow=0;dashed=0;align=center;html=1;shape=mxgraph.mockup.containers.anchor;fontSize=17;fontColor=#666666;align=left;whiteSpace=wrap;" parent="IYKv4-9v9WQwq1Tj8tWP-382" vertex="1">
          <mxGeometry x="60" y="12" width="110" height="26" as="geometry" />
        </mxCell>
        <mxCell id="IYKv4-9v9WQwq1Tj8tWP-384" value="https://hostname/admin/key" style="strokeWidth=1;shadow=0;dashed=0;align=center;html=1;shape=mxgraph.mockup.containers.anchor;rSize=0;fontSize=17;fontColor=#666666;align=left;" parent="IYKv4-9v9WQwq1Tj8tWP-382" vertex="1">
          <mxGeometry x="130" y="60" width="440" height="26" as="geometry" />
        </mxCell>
        <mxCell id="IYKv4-9v9WQwq1Tj8tWP-385" value="" style="strokeWidth=1;shadow=0;dashed=0;align=center;html=1;shape=mxgraph.mockup.forms.rrect;rSize=0;strokeColor=#6c8ebf;fillColor=#dae8fc;" parent="IYKv4-9v9WQwq1Tj8tWP-382" vertex="1">
          <mxGeometry x="470" y="260" width="340" height="200" as="geometry" />
        </mxCell>
        <mxCell id="IYKv4-9v9WQwq1Tj8tWP-386" value="Административная панель" style="strokeWidth=1;shadow=0;dashed=0;align=center;html=1;shape=mxgraph.mockup.forms.anchor;fontSize=12;fontColor=#000000;align=left;resizeWidth=1;spacingLeft=0;" parent="IYKv4-9v9WQwq1Tj8tWP-385" vertex="1">
          <mxGeometry width="169.99999999999997" height="20" relative="1" as="geometry">
            <mxPoint x="10" y="10" as="offset" />
          </mxGeometry>
        </mxCell>
        <mxCell id="IYKv4-9v9WQwq1Tj8tWP-387" value="" style="shape=line;strokeColor=#F0F8FF;strokeWidth=3;html=1;resizeWidth=1;" parent="IYKv4-9v9WQwq1Tj8tWP-385" vertex="1">
          <mxGeometry width="320" height="10" relative="1" as="geometry">
            <mxPoint x="10" y="30" as="offset" />
          </mxGeometry>
        </mxCell>
        <mxCell id="IYKv4-9v9WQwq1Tj8tWP-388" value="Имя пользователя:" style="strokeWidth=1;shadow=0;dashed=0;align=center;html=1;shape=mxgraph.mockup.forms.anchor;fontSize=12;fontColor=#000000;align=left;resizeWidth=1;spacingLeft=0;" parent="IYKv4-9v9WQwq1Tj8tWP-385" vertex="1">
          <mxGeometry width="169.99999999999997" height="20" relative="1" as="geometry">
            <mxPoint x="10" y="40" as="offset" />
          </mxGeometry>
        </mxCell>
        <mxCell id="IYKv4-9v9WQwq1Tj8tWP-389" value="johndoe" style="strokeWidth=1;shadow=0;dashed=0;align=center;html=1;shape=mxgraph.mockup.forms.rrect;rSize=0;strokeColor=#999999;fontColor=#666666;align=left;spacingLeft=5;resizeWidth=1;" parent="IYKv4-9v9WQwq1Tj8tWP-385" vertex="1">
          <mxGeometry width="255" height="25" relative="1" as="geometry">
            <mxPoint x="10" y="60" as="offset" />
          </mxGeometry>
        </mxCell>
        <mxCell id="IYKv4-9v9WQwq1Tj8tWP-390" value="Пароль:" style="strokeWidth=1;shadow=0;dashed=0;align=center;html=1;shape=mxgraph.mockup.forms.anchor;fontSize=12;fontColor=#000000;align=left;resizeWidth=1;spacingLeft=0;" parent="IYKv4-9v9WQwq1Tj8tWP-385" vertex="1">
          <mxGeometry width="169.99999999999997" height="20" relative="1" as="geometry">
            <mxPoint x="10" y="95" as="offset" />
          </mxGeometry>
        </mxCell>
        <mxCell id="IYKv4-9v9WQwq1Tj8tWP-391" value="********" style="strokeWidth=1;shadow=0;dashed=0;align=center;html=1;shape=mxgraph.mockup.forms.rrect;rSize=0;strokeColor=#999999;fontColor=#666666;align=left;spacingLeft=5;resizeWidth=1;" parent="IYKv4-9v9WQwq1Tj8tWP-385" vertex="1">
          <mxGeometry width="255" height="25" relative="1" as="geometry">
            <mxPoint x="10" y="115" as="offset" />
          </mxGeometry>
        </mxCell>
        <mxCell id="IYKv4-9v9WQwq1Tj8tWP-392" value="SIGN IN" style="strokeWidth=1;shadow=0;dashed=0;align=center;html=1;shape=mxgraph.mockup.forms.rrect;rSize=5;strokeColor=none;fontColor=#ffffff;fillColor=#66bbff;fontSize=16;fontStyle=1;" parent="IYKv4-9v9WQwq1Tj8tWP-385" vertex="1">
          <mxGeometry y="1" width="80" height="30" relative="1" as="geometry">
            <mxPoint x="130" y="-40" as="offset" />
          </mxGeometry>
        </mxCell>
        <mxCell id="IYKv4-9v9WQwq1Tj8tWP-393" value="" style="strokeWidth=1;shadow=0;dashed=0;align=center;html=1;shape=mxgraph.mockup.forms.anchor;fontSize=12;fontColor=#666666;align=left;spacingLeft=0;resizeWidth=1;" parent="IYKv4-9v9WQwq1Tj8tWP-385" vertex="1">
          <mxGeometry y="1" width="255" height="20" relative="1" as="geometry">
            <mxPoint x="10" y="-70" as="offset" />
          </mxGeometry>
        </mxCell>
        <mxCell id="IYKv4-9v9WQwq1Tj8tWP-42" value="&lt;font style=&quot;font-size: 9px;&quot;&gt;Неверные данные для авторизации&lt;/font&gt;" style="text;html=1;align=center;verticalAlign=middle;whiteSpace=wrap;rounded=0;textOpacity=70;fontColor=#FF5C5C;" parent="IYKv4-9v9WQwq1Tj8tWP-385" vertex="1">
          <mxGeometry x="6" y="140" width="160" height="18.333333333333332" as="geometry" />
        </mxCell>
      </root>
    </mxGraphModel>
  </diagram>
</mxfile>
